<svg xmlns="http://www.w3.org/2000/svg" viewBox="0 0 64 64">
  <rect width="64" height="64" fill="#2a4554"/>
  <g fill="#cbbda5" transform="translate(8,13.8) scale(0.943) translate(-201.4,-248.1)">
    <path d="M 245.003906 265.667969 L 208.070312 265.667969 C 207.273438 265.667969 206.625 266.3125 206.625 267.109375 C 206.625 267.898438 207.273438 268.539062 208.070312 268.539062 L 245.003906 268.539062 C 245.800781 268.539062 246.449219 267.898438 246.449219 267.109375 C 246.449219 266.3125 245.800781 265.667969 245.003906 265.667969"/>
    <path d="M 243.136719 269.960938 L 209.921875 269.960938 C 209.621094 269.960938 209.375 270.207031 209.375 270.507812 L 209.375 286.175781 L 211.027344 286.175781 L 211.027344 273.671875 C 211.027344 273.140625 211.472656 272.691406 212.019531 272.691406 C 212.351562 272.691406 212.582031 272.851562 212.722656 272.980469 C 212.894531 273.167969 213.011719 273.410156 213.011719 273.671875 L 213.011719 286.175781 L 215.554688 286.175781 L 215.554688 273.972656 C 215.554688 273.269531 216.144531 272.691406 216.847656 272.691406 C 217.195312 272.691406 217.511719 272.820312 217.738281 273.066406 C 218 273.296875 218.140625 273.640625 218.140625 273.972656 L 218.140625 286.175781 L 221.015625 286.175781 L 221.015625 274.34375 C 221.015625 273.425781 221.75 272.691406 222.65625 272.691406 C 223.101562 272.691406 223.515625 272.863281 223.835938 273.167969 C 224.136719 273.46875 224.308594 273.886719 224.308594 274.34375 L 224.308594 286.175781 L 228.765625 286.175781 L 228.765625 274.34375 C 228.765625 273.886719 228.949219 273.46875 229.238281 273.167969 C 229.554688 272.863281 229.972656 272.691406 230.417969 272.691406 C 231.324219 272.691406 232.054688 273.425781 232.054688 274.34375 L 232.054688 286.175781 L 234.945312 286.175781 L 234.945312 273.972656 C 234.945312 273.640625 235.074219 273.296875 235.332031 273.066406 C 235.5625 272.820312 235.878906 272.691406 236.222656 272.691406 C 236.941406 272.691406 237.515625 273.269531 237.515625 273.972656 L 237.515625 286.175781 L 240.0625 286.175781 L 240.0625 273.671875 C 240.0625 273.398438 240.160156 273.167969 240.347656 272.980469 C 240.492188 272.851562 240.722656 272.691406 241.050781 272.691406 C 241.597656 272.691406 242.042969 273.140625 242.042969 273.671875 L 242.042969 286.175781 L 243.683594 286.175781 L 243.683594 270.507812 C 243.683594 270.207031 243.4375 269.960938 243.136719 269.960938"/>
    <path d="M 251.222656 254 C 250.527344 251.996094 249.074219 250.375 247.128906 249.441406 C 245.980469 248.886719 244.75 248.605469 243.476562 248.605469 L 209.609375 248.605469 C 208.335938 248.605469 207.105469 248.886719 205.957031 249.441406 C 204.015625 250.375 202.558594 251.996094 201.863281 254 C 201.296875 255.652344 201.421875 257.421875 202.207031 258.988281 C 203.023438 260.613281 204.445312 261.824219 206.21875 262.394531 C 206.804688 262.578125 207.410156 262.675781 208.019531 262.675781 C 210.5 262.675781 212.699219 261.144531 213.484375 258.867188 C 213.894531 257.683594 213.796875 256.421875 213.21875 255.316406 C 212.652344 254.203125 211.660156 253.375 210.433594 252.988281 C 210.023438 252.855469 209.601562 252.789062 209.175781 252.789062 C 208.554688 252.789062 207.953125 252.925781 207.386719 253.203125 C 206.433594 253.660156 205.71875 254.453125 205.375 255.441406 C 205.238281 255.851562 205.1875 256.257812 205.21875 256.65625 C 205.21875 256.65625 205.214844 256.65625 205.214844 256.65625 C 205.214844 256.65625 205.21875 256.65625 205.21875 256.660156 C 205.21875 256.664062 205.214844 256.667969 205.214844 256.675781 L 205.21875 256.675781 C 205.230469 256.894531 205.410156 257.070312 205.632812 257.070312 C 205.863281 257.070312 206.046875 256.886719 206.046875 256.65625 C 206.046875 256.648438 206.042969 256.644531 206.042969 256.640625 L 206.046875 256.640625 C 206.046875 256.382812 206.085938 256.128906 206.171875 255.875 C 206.417969 255.164062 206.9375 254.589844 207.628906 254.257812 C 208.050781 254.054688 208.496094 253.957031 208.949219 253.957031 C 209.257812 253.957031 209.566406 254.003906 209.867188 254.101562 C 210.707031 254.367188 211.394531 254.9375 211.804688 255.707031 C 212.199219 256.460938 212.261719 257.328125 211.984375 258.144531 C 211.464844 259.652344 209.996094 260.664062 208.335938 260.664062 C 207.925781 260.664062 207.519531 260.601562 207.125 260.476562 C 206.074219 260.140625 205.199219 259.433594 204.664062 258.488281 L 204.582031 258.355469 C 204.445312 258.089844 204.339844 257.824219 204.253906 257.515625 C 203.765625 256.332031 203.972656 254.917969 204.820312 253.648438 C 205.773438 252.222656 207.289062 251.335938 208.769531 251.335938 L 244.082031 251.335938 L 244.460938 251.34375 C 245.933594 251.378906 247.421875 252.285156 248.347656 253.699219 C 249.167969 254.957031 249.363281 256.347656 248.878906 257.519531 C 248.757812 257.816406 248.660156 258.039062 248.574219 258.195312 L 248.515625 258.320312 L 248.503906 258.355469 C 247.976562 259.367188 247.070312 260.121094 245.949219 260.476562 C 245.558594 260.601562 245.15625 260.664062 244.746094 260.664062 C 243.082031 260.664062 241.617188 259.652344 241.101562 258.148438 C 240.824219 257.332031 240.886719 256.464844 241.28125 255.710938 C 241.691406 254.9375 242.382812 254.367188 243.222656 254.101562 C 243.519531 254.003906 243.828125 253.957031 244.140625 253.957031 C 244.59375 253.957031 245.039062 254.054688 245.457031 254.257812 C 246.148438 254.589844 246.667969 255.164062 246.914062 255.867188 C 246.996094 256.128906 247.039062 256.382812 247.039062 256.632812 C 247.039062 256.640625 247.035156 256.644531 247.035156 256.648438 C 247.035156 256.878906 247.222656 257.066406 247.453125 257.066406 C 247.679688 257.066406 247.863281 256.886719 247.867188 256.660156 L 247.871094 256.660156 C 247.871094 256.660156 247.871094 256.65625 247.871094 256.652344 C 247.871094 256.652344 247.871094 256.652344 247.871094 256.648438 C 247.890625 256.226562 247.839844 255.820312 247.710938 255.4375 C 247.371094 254.453125 246.652344 253.660156 245.703125 253.207031 C 245.136719 252.925781 244.53125 252.789062 243.910156 252.789062 C 243.484375 252.789062 243.0625 252.855469 242.65625 252.988281 C 241.425781 253.375 240.4375 254.203125 239.871094 255.3125 C 239.289062 256.421875 239.195312 257.6875 239.601562 258.867188 C 240.386719 261.144531 242.585938 262.675781 245.070312 262.675781 C 245.679688 262.675781 246.285156 262.578125 246.871094 262.394531 C 248.640625 261.824219 250.066406 260.613281 250.878906 258.988281 C 251.664062 257.421875 251.785156 255.652344 251.222656 254"/>
    <path d="M 244.054688 255.097656 C 243.972656 255.097656 243.890625 255.101562 243.800781 255.113281 C 242.710938 255.261719 241.929688 256.265625 242.066406 257.359375 C 242.199219 258.359375 243.058594 259.113281 244.058594 259.113281 C 244.144531 259.113281 244.234375 259.109375 244.324219 259.09375 C 245.421875 258.945312 246.195312 257.941406 246.050781 256.851562 C 245.925781 255.851562 245.070312 255.097656 244.054688 255.097656"/>
    <path d="M 208.765625 259.113281 C 208.855469 259.113281 208.941406 259.109375 209.03125 259.09375 C 209.5625 259.023438 210.035156 258.753906 210.359375 258.328125 C 210.6875 257.90625 210.828125 257.378906 210.757812 256.851562 C 210.632812 255.851562 209.78125 255.097656 208.769531 255.097656 C 208.6875 255.097656 208.605469 255.101562 208.519531 255.113281 C 207.414062 255.261719 206.636719 256.269531 206.785156 257.355469 C 206.90625 258.359375 207.761719 259.113281 208.765625 259.113281"/>
    <path d="M 212.023438 263.867188 C 212.023438 264.097656 212.207031 264.28125 212.433594 264.28125 C 212.4375 264.28125 212.441406 264.28125 212.445312 264.28125 L 240.640625 264.28125 L 240.640625 264.277344 C 240.648438 264.277344 240.652344 264.28125 240.660156 264.28125 C 240.890625 264.28125 241.074219 264.097656 241.074219 263.867188 C 241.074219 263.695312 240.964844 263.546875 240.808594 263.488281 C 240.257812 263.21875 239.710938 262.847656 239.191406 262.378906 C 237.808594 261.101562 237.015625 259.277344 237.015625 257.382812 C 237.015625 257.054688 237.042969 256.710938 237.101562 256.292969 C 237.269531 255.234375 237.695312 254.226562 238.324219 253.386719 L 238.820312 252.722656 L 214.269531 252.722656 L 214.765625 253.386719 C 215.394531 254.230469 215.816406 255.234375 215.996094 256.34375 C 216.046875 256.714844 216.070312 257.058594 216.070312 257.382812 C 216.070312 259.277344 215.277344 261.101562 213.898438 262.375 C 213.375 262.847656 212.828125 263.226562 212.269531 263.492188 C 212.125 263.558594 212.023438 263.703125 212.023438 263.867188"/>
  </g>
</svg>
